#!OML:ASF H:\Dans Jumps\Project 1\Capture day 1\Session 1\subject.ASF
:FULLY-SPECIFIED
:DEGREES
269
root 0.169094 16.3717 -15.4423 14.3534 -1.61197 -2.31028
lowerback 10.6398 0.10385 0.295743
upperback 6.12648 0.172205 2.01411
thorax 0.405577 0.0568263 1.90061
lowerneck -15.2272 0.316017 -2.08168
upperneck 14.0132 0.859109 0.217262
head 6.77132 0.319069 0.497018
rclavicle -1.98785e-016 4.77083e-015
rhumerus -33.2162 -16.7299 -73.8335
rradius 24.4776
rwrist 30.048
rhand -20.9108 -25.3399
rfingers 7.12502
rthumb 5.46043 -55.2495
lclavicle -1.98785e-016 4.77083e-015
lhumerus -33.2253 -3.48131 86.5114
lradius 20.3881
lwrist 15.8377
lhand -29.5603 -6.92592
lfingers 7.12502
lthumb -2.89283 23.0342
rfemur -44.0458 -2.35442 20.3766
rtibia 51.2638
rfoot -21.9431 -2.5129
rtoes -0.663729
lfemur -43.2725 9.23746 -18.2347
ltibia 51.3772
lfoot -19.6774 8.75848
ltoes -11.5759
270
root 0.166875 16.3073 -15.4762 14.6269 -1.56599 -2.27937
lowerback 10.9841 0.107781 0.255985
upperback 6.17019 0.177673 1.98925
thorax 0.264197 0.0591688 1.89706
lowerneck -15.3391 0.296671 -2.10907
upperneck 13.5418 0.832847 0.253254
head 6.63832 0.312119 0.509005
rclavicle 6.85807e-015 -7.35503e-015
rhumerus -33.8955 -16.7172 -73.596
rradius 24.3768
rwrist 30.154
rhand -20.7717 -25.3211
rfingers 7.12502
rthumb 5.59475 -55.2272
lclavicle 6.85807e-015 -7.35503e-015
lhumerus -33.8787 -3.35756 86.4284
lradius 20.309
lwrist 15.8441
lhand -29.5737 -6.87128
lfingers 7.12502
lthumb -2.90577 23.0887
rfemur -45.0957 -2.34416 20.3662
rtibia 52.4
rfoot -22.3983 -2.84372
rtoes -1.19445
lfemur -44.3085 9.13492 -18.3024
ltibia 52.4823
lfoot -20.1114 9.08403
ltoes -11.8413
271
root 0.164779 16.2406 -15.5094 14.9078 -1.52209 -2.25014
lowerback 11.3206 0.112212 0.219596
upperback 6.21261 0.183666 1.96548
thorax 0.126077 0.061858 1.89268
lowerneck -15.4569 0.28131 -2.13188
upperneck 13.0715 0.812602 0.28203
head 6.50694 0.307613 0.518547
rclavicle -2.68359e-015 3.97569e-016
rhumerus -34.5953 -16.7125 -73.3434
rradius 24.2687
rwrist 30.2789
rhand -20.6248 -25.3131
rfingers 7.12502
rthumb 5.73657 -55.2155
lclavicle -2.68359e-015 3.97569e-016
lhumerus -34.5543 -3.20456 86.3392
lradius 20.2339
lwrist 15.8565
lhand -29.5978 -6.81719
lfingers 7.12502
lthumb -2.92909 23.1424
rfemur -46.1599 -2.32719 20.3549
rtibia 53.5466
rfoot -22.8308 -3.18095
rtoes -1.64614
lfemur -45.3618 9.03046 -18.3682
ltibia 53.6047
lfoot -20.5347 9.42271
ltoes -12.1182
272
root 0.162673 16.1718 -15.5422 15.1941 -1.47752 -2.22403
lowerback 11.6504 0.116476 0.185016
upperback 6.25706 0.189195 1.94522
thorax -0.00594963 0.064295 1.89098
lowerneck -15.5882 0.267435 -2.15261
upperneck 12.6071 0.795926 0.302056
head 6.38004 0.304092 0.525363
rclavicle 4.47266e-015 -9.54166e-015
rhumerus -35.3076 -16.7226 -73.0742
rradius 24.1545
rwrist 30.4261
rhand -20.4664 -25.3148
rfingers 7.12502
rthumb 5.88955 -55.2129
lclavicle 4.47266e-015 -9.54166e-015
lhumerus -35.239 -3.02518 86.247
lradius 20.1503
lwrist 15.869
lhand -29.6342 -6.76274
lfingers 7.12502
lthumb -2.9642 23.1964
rfemur -47.2363 -2.30244 20.3451
rtibia 54.7021
rfoot -23.2361 -3.53059
rtoes -2.01889
lfemur -46.4312 8.92422 -18.4286
ltibia 54.7413
lfoot -20.9393 9.76399
ltoes -12.3836
273
root 0.160586 16.1008 -15.5744 15.4873 -1.43462 -2.20197
lowerback 11.9709 0.122066 0.151523
upperback 6.30317 0.196177 1.92938
thorax -0.130915 0.0673963 1.89308
lowerneck -15.7272 0.257176 -2.16383
upperneck 12.1447 0.784961 0.30556
head 6.25535 0.302356 0.525951
rclavicle 1.98785e-015 1.53064e-014
rhumerus -36.0326 -16.7502 -72.783
rradius 24.0348
rwrist 30.6013
rhand -20.3045 -25.3183
rfingers 7.12502
rthumb 6.04582 -55.2121
lclavicle 1.98785e-015 1.53064e-014
lhumerus -35.9293 -2.81924 86.1515
lradius 20.0537
lwrist 15.8844
lhand -29.6464 -6.67718
lfingers 7.12502
lthumb -2.97593 23.2818
rfemur -48.3259 -2.26781 20.3374
rtibia 55.865
rfoot -23.6158 -3.90358
rtoes -2.33778
lfemur -47.5172 8.81999 -18.484
ltibia 55.8897
lfoot -21.3157 10.1094
ltoes -12.6249
274
root 0.158484 16.0278 -15.606 15.788 -1.39263 -2.18534
lowerback 12.2809 0.129513 0.120479
upperback 6.35268 0.20546 1.91885
thorax -0.246424 0.0715791 1.89903
lowerneck -15.8704 0.248698 -2.16788
upperneck 11.6781 0.77734 0.293151
head 6.13024 0.301279 0.520642
rclavicle 2.18663e-015 -1.5704e-014
rhumerus -36.7659 -16.793 -72.4724
rradius 23.9148
rwrist 30.7918
rhand -20.1291 -25.337
rfingers 7.12502
rthumb 6.21517 -55.2259
lclavicle 2.18663e-015 -1.5704e-014
lhumerus -36.6147 -2.59087 86.0536
lradius 19.9373
lwrist 15.8856
lhand -29.6247 -6.53981
lfingers 7.12502
lthumb -2.95504 23.4195
rfemur -49.4286 -2.22439 20.3341
rtibia 57.0329
rfoot -23.9768 -4.27749
rtoes -2.58354
lfemur -48.6197 8.7178 -18.5324
ltibia 57.0473
lfoot -21.6633 10.4533
ltoes -12.8281
275
root 0.156282 15.9529 -15.6373 16.0985 -1.35285 -2.17369
lowerback 12.5812 0.140601 0.0894755
upperback 6.40375 0.219237 1.91458
thorax -0.354955 0.0778782 1.91086
lowerneck -16.0169 0.238306 -2.17521
upperneck 11.2072 0.768849 0.274143
head 6.00453 0.299147 0.513715
rclavicle 1.59028e-015 0
rhumerus -37.5072 -16.8478 -72.1428
rradius 23.8
rwrist 30.9907
rhand -19.9441 -25.3717
rfingers 7.12502
rthumb 6.39378 -55.2552
lclavicle 1.59028e-015 0
lhumerus -37.2959 -2.34614 85.9567
lradius 19.8017
lwrist 15.858
lhand -29.5909 -6.41157
lfingers 7.12502
lthumb -2.92234 23.5482
rfemur -50.5466 -2.17013 20.3339
rtibia 58.2033
rfoot -24.3283 -4.63194
rtoes -2.77495
lfemur -49.7404 8.62037 -18.5752
ltibia 58.2127
lfoot -21.9841 10.7925
ltoes -12.9944
276
root 0.153994 15.8765 -15.6679 16.4155 -1.31644 -2.16994
lowerback 12.8746 0.156301 0.0620275
upperback 6.45616 0.239225 1.91666
thorax -0.458226 0.0872211 1.92642
lowerneck -16.1614 0.227462 -2.18099
upperneck 10.7304 0.760557 0.245783
head 5.87682 0.296516 0.50361
rclavicle -1.2921e-015 9.93923e-016
rhumerus -38.2595 -16.9155 -71.7936
rradius 23.6937
rwrist 31.1952
rhand -19.7499 -25.4181
rfingers 7.12502
rthumb 6.58122 -55.2958
lclavicle -1.2921e-015 9.93923e-016
lhumerus -37.9723 -2.09182 85.862
lradius 19.6464
lwrist 15.7913
lhand -29.5478 -6.29933
lfingers 7.12502
lthumb -2.88075 23.661
rfemur -51.6719 -2.10469 20.34
rtibia 59.372
rfoot -24.6812 -4.95459
rtoes -2.91745
lfemur -50.8713 8.53015 -18.6089
ltibia 59.3832
lfoot -22.29 11.1239
ltoes -13.1325
